<svg width="40" height="40" viewBox="0 0 40 40" fill="none" xmlns="http://www.w3.org/2000/svg">
<path d="M2.5 29.375C2.5 30.5353 2.96094 31.6481 3.78141 32.4686C4.60188 33.2891 5.71468 33.75 6.875 33.75H33.125C34.2853 33.75 35.3981 33.2891 36.2186 32.4686C37.0391 31.6481 37.5 30.5353 37.5 29.375V17.3438H2.5V29.375ZM7.65625 23.4375C7.65625 22.8159 7.90318 22.2198 8.34272 21.7802C8.78226 21.3407 9.3784 21.0938 10 21.0938H13.75C14.3716 21.0938 14.9677 21.3407 15.4073 21.7802C15.8468 22.2198 16.0938 22.8159 16.0938 23.4375V25C16.0938 25.6216 15.8468 26.2177 15.4073 26.6573C14.9677 27.0968 14.3716 27.3438 13.75 27.3438H10C9.3784 27.3438 8.78226 27.0968 8.34272 26.6573C7.90318 26.2177 7.65625 25.6216 7.65625 25V23.4375Z" fill="#666666"/>
<path d="M33.125 6.25H6.875C5.71468 6.25 4.60188 6.71094 3.78141 7.53141C2.96094 8.35188 2.5 9.46468 2.5 10.625V12.6562H37.5V10.625C37.5 9.46468 37.0391 8.35188 36.2186 7.53141C35.3981 6.71094 34.2853 6.25 33.125 6.25Z" fill="#666666"/>
</svg>
