<svg width="40" height="40" viewBox="0 0 40 40" fill="none" xmlns="http://www.w3.org/2000/svg">
<g clip-path="url(#clip0_42_980)">
<path d="M38.75 8.75H1.25C0.918479 8.75 0.600537 8.8817 0.366117 9.11612C0.131696 9.35054 0 9.66848 0 10L0 30C0 30.3315 0.131696 30.6495 0.366117 30.8839C0.600537 31.1183 0.918479 31.25 1.25 31.25H38.75C39.0815 31.25 39.3995 31.1183 39.6339 30.8839C39.8683 30.6495 40 30.3315 40 30V10C40 9.66848 39.8683 9.35054 39.6339 9.11612C39.3995 8.8817 39.0815 8.75 38.75 8.75ZM31.3625 28.75H8.6375C8.37698 27.2169 7.64638 25.8028 6.5468 24.7032C5.44723 23.6036 4.03306 22.873 2.5 22.6125V17.3875C4.03306 17.127 5.44723 16.3964 6.5468 15.2968C7.64638 14.1972 8.37698 12.7831 8.6375 11.25H31.3625C31.623 12.7831 32.3536 14.1972 33.4532 15.2968C34.5528 16.3964 35.9669 17.127 37.5 17.3875V22.6125C35.9669 22.873 34.5528 23.6036 33.4532 24.7032C32.3536 25.8028 31.623 27.2169 31.3625 28.75ZM37.5 14.825C36.6402 14.6006 35.8557 14.151 35.2274 13.5226C34.599 12.8943 34.1494 12.1098 33.925 11.25H37.5V14.825ZM6.075 11.25C5.85055 12.1098 5.40101 12.8943 4.77265 13.5226C4.14429 14.151 3.35982 14.6006 2.5 14.825V11.25H6.075ZM2.5 25.175C3.35982 25.3994 4.14429 25.849 4.77265 26.4774C5.40101 27.1057 5.85055 27.8902 6.075 28.75H2.5V25.175ZM33.925 28.75C34.1494 27.8902 34.599 27.1057 35.2274 26.4774C35.8557 25.849 36.6402 25.3994 37.5 25.175V28.75H33.925Z" fill="#666666"/>
<path d="M9.38761 0.88755C9.24526 0.805258 9.08808 0.751858 8.92506 0.730409C8.76204 0.708959 8.5964 0.719882 8.43761 0.76255C8.11736 0.845744 7.84316 1.05252 7.67511 1.33755L5.17511 5.62505C5.00935 5.91347 4.96495 6.25593 5.05169 6.57709C5.13842 6.89824 5.34919 7.17179 5.63761 7.33755C5.92603 7.50331 6.26849 7.54771 6.58965 7.46097C6.9108 7.37423 7.18435 7.16347 7.35011 6.87505L9.22511 3.67505L15.5626 7.33755C15.851 7.50331 16.1935 7.54771 16.5146 7.46097C16.8358 7.37423 17.1093 7.16347 17.2751 6.87505C17.4409 6.58663 17.4853 6.24417 17.3985 5.92301C17.3118 5.60186 17.101 5.32831 16.8126 5.16255L9.38761 0.88755Z" fill="#666666"/>
<path d="M30.6123 39.1127C30.8016 39.2251 31.0172 39.2854 31.2373 39.2877C31.3449 39.3059 31.4547 39.3059 31.5623 39.2877C31.8826 39.2045 32.1568 38.9977 32.3248 38.7127L34.8248 34.4252C34.9906 34.1368 35.035 33.7943 34.9482 33.4732C34.8615 33.152 34.6507 32.8785 34.3623 32.7127C34.0739 32.5469 33.7314 32.5026 33.4103 32.5893C33.0891 32.676 32.8156 32.8868 32.6498 33.1752L30.7998 36.3752L24.4623 32.7127C24.1739 32.5469 23.8314 32.5026 23.5103 32.5893C23.1891 32.676 22.9156 32.8868 22.7498 33.1752C22.5841 33.4636 22.5397 33.8061 22.6264 34.1272C22.7131 34.4484 22.9239 34.7219 23.2123 34.8877L30.6123 39.1127Z" fill="#666666"/>
<path d="M20 12.5C18.5166 12.5 17.0666 12.9399 15.8332 13.764C14.5999 14.5881 13.6386 15.7594 13.0709 17.1299C12.5032 18.5003 12.3547 20.0083 12.6441 21.4632C12.9335 22.918 13.6478 24.2544 14.6967 25.3033C15.7456 26.3522 17.082 27.0665 18.5368 27.3559C19.9917 27.6453 21.4997 27.4968 22.8701 26.9291C24.2406 26.3614 25.4119 25.4001 26.236 24.1668C27.0601 22.9334 27.5 21.4834 27.5 20C27.5 18.0109 26.7098 16.1032 25.3033 14.6967C23.8968 13.2902 21.9891 12.5 20 12.5ZM20 25C19.0111 25 18.0444 24.7068 17.2222 24.1573C16.3999 23.6079 15.759 22.827 15.3806 21.9134C15.0022 20.9998 14.9032 19.9945 15.0961 19.0245C15.289 18.0546 15.7652 17.1637 16.4645 16.4645C17.1637 15.7652 18.0546 15.289 19.0246 15.0961C19.9945 14.9031 20.9998 15.0022 21.9134 15.3806C22.8271 15.759 23.6079 16.3999 24.1574 17.2221C24.7068 18.0444 25 19.0111 25 20C25 21.3261 24.4732 22.5979 23.5355 23.5355C22.5979 24.4732 21.3261 25 20 25Z" fill="#666666"/>
</g>
<defs>
<clipPath id="clip0_42_980">
<rect width="40" height="40" fill="white"/>
</clipPath>
</defs>
</svg>
