<svg width="40" height="40" viewBox="0 0 40 40" fill="none" xmlns="http://www.w3.org/2000/svg">
<path d="M33.1881 11.624C33.1545 11.8396 33.1155 12.06 33.0717 12.2865C31.5741 19.9428 26.4499 22.5834 19.9045 22.5834H16.5725C16.187 22.5825 15.8139 22.7194 15.5206 22.9696C15.2273 23.2198 15.0332 23.5666 14.9733 23.9475L13.267 34.7162L12.7842 37.7686C12.7669 37.8788 12.7715 37.9914 12.7977 38.0999C12.824 38.2084 12.8714 38.3106 12.9372 38.4007C13.003 38.4909 13.086 38.5672 13.1813 38.6252C13.2767 38.6832 13.3825 38.7218 13.4928 38.7389C13.5368 38.7458 13.5812 38.7492 13.6256 38.749H19.5358C19.8738 38.75 20.2011 38.6305 20.4589 38.4118C20.7166 38.1931 20.8879 37.8897 20.942 37.5561L20.9999 37.2568L22.1124 30.2256L22.1834 29.8396C22.2367 29.5054 22.4078 29.2013 22.6656 28.9821C22.9235 28.7629 23.2513 28.6431 23.5897 28.6443H24.4733C30.1999 28.6443 34.6819 26.3303 35.992 19.635C36.5389 16.8381 36.2561 14.5029 34.8077 12.86C34.3472 12.3532 33.7985 11.9344 33.1881 11.624Z" fill="#666666"/>
<path d="M30.1186 3.99141C28.4248 2.07188 25.3678 1.25 21.4553 1.25H10.0975C9.71115 1.24909 9.3372 1.38617 9.04299 1.63654C8.74879 1.88692 8.55367 2.23413 8.49279 2.61563L3.76232 32.4594C3.74243 32.5857 3.74766 32.7146 3.77772 32.8389C3.80778 32.9631 3.86207 33.0802 3.93749 33.1834C4.0129 33.2866 4.10795 33.3739 4.21719 33.4403C4.32642 33.5067 4.44769 33.5509 4.57404 33.5703C4.62418 33.5781 4.67485 33.5821 4.7256 33.582H11.7381L13.499 22.4656L13.4443 22.8141C13.5042 22.4332 13.6983 22.0864 13.9916 21.8362C14.2849 21.5861 14.6581 21.4491 15.0436 21.45H18.3756C24.9201 21.45 30.0443 18.8047 31.5428 11.1531C31.5873 10.9266 31.6248 10.7063 31.6592 10.4906C32.1045 7.66094 31.6553 5.73516 30.1186 3.99141Z" fill="#666666"/>
</svg>
