<svg width="13" height="13" viewBox="0 0 13 13" fill="none" xmlns="http://www.w3.org/2000/svg">
<path d="M8.12164 6.5L12.6607 1.96095C12.8761 1.74591 12.9973 1.4541 12.9976 1.14971C12.9978 0.845326 12.8772 0.553301 12.6621 0.337879C12.4471 0.122457 12.1553 0.00128257 11.8509 0.00101375C11.5465 0.000744942 11.2545 0.121403 11.0391 0.336446L6.5 4.8755L1.96095 0.336446C1.74553 0.121023 1.45335 0 1.1487 0C0.844044 0 0.551868 0.121023 0.336446 0.336446C0.121023 0.551868 0 0.844044 0 1.1487C0 1.45335 0.121023 1.74553 0.336446 1.96095L4.8755 6.5L0.336446 11.0391C0.121023 11.2545 0 11.5466 0 11.8513C0 12.156 0.121023 12.4481 0.336446 12.6636C0.551868 12.879 0.844044 13 1.1487 13C1.45335 13 1.74553 12.879 1.96095 12.6636L6.5 8.1245L11.0391 12.6636C11.2545 12.879 11.5466 13 11.8513 13C12.156 13 12.4481 12.879 12.6636 12.6636C12.879 12.4481 13 12.156 13 11.8513C13 11.5466 12.879 11.2545 12.6636 11.0391L8.12164 6.5Z" fill="black"/>
</svg>
