<svg width="20" height="20" viewBox="0 0 20 20" fill="none" xmlns="http://www.w3.org/2000/svg">
<path d="M10 1.875C5.5125 1.875 1.875 5.5125 1.875 10C1.875 14.4875 5.5125 18.125 10 18.125C14.4875 18.125 18.125 14.4875 18.125 10C18.125 5.5125 14.4875 1.875 10 1.875ZM6.78398 6.34141L10.8855 9.11484C11.1563 9.30984 11.3394 9.60358 11.3952 9.93253C11.4511 10.2615 11.3752 10.5992 11.1839 10.8726C10.9927 11.146 10.7015 11.3332 10.3734 11.3936C10.0452 11.454 9.70651 11.3827 9.43047 11.1953C9.3092 11.1098 9.20349 11.0041 9.11797 10.8828L6.34453 6.78125C6.30184 6.72009 6.28203 6.64586 6.28859 6.57156C6.29514 6.49727 6.32764 6.42765 6.38038 6.37491C6.43312 6.32217 6.50274 6.28967 6.57703 6.28312C6.65133 6.27657 6.72556 6.29637 6.78672 6.33906L6.78398 6.34141ZM10 16.875C6.21094 16.875 3.125 13.791 3.125 10C3.12178 9.07534 3.30667 8.1597 3.66842 7.30873C4.03017 6.45777 4.56123 5.68928 5.2293 5.05C5.28125 4.9982 5.343 4.95727 5.41094 4.92958C5.47887 4.9019 5.55164 4.88801 5.625 4.88874C5.69836 4.88946 5.77085 4.90478 5.83822 4.93381C5.9056 4.96283 5.96652 5.00498 6.01744 5.0578C6.06837 5.11061 6.10826 5.17303 6.13481 5.24142C6.16136 5.30981 6.17403 5.3828 6.17208 5.45614C6.17013 5.52948 6.15359 5.60169 6.12345 5.66858C6.0933 5.73546 6.05014 5.79567 5.99648 5.8457C5.43588 6.38228 4.99024 7.02725 4.68665 7.7414C4.38306 8.45556 4.22785 9.224 4.23047 10C4.23047 13.1812 6.81875 15.7695 10 15.7695C13.1812 15.7695 15.7695 13.1812 15.7695 10C15.7695 7.00508 13.4758 4.53594 10.5527 4.25781V6.40625C10.5527 6.55284 10.4945 6.69343 10.3908 6.79709C10.2872 6.90075 10.1466 6.95898 10 6.95898C9.85341 6.95898 9.71282 6.90075 9.60916 6.79709C9.5055 6.69343 9.44727 6.55284 9.44727 6.40625V3.67773C9.44727 3.53114 9.5055 3.39055 9.60916 3.28689C9.71282 3.18323 9.85341 3.125 10 3.125C13.791 3.125 16.875 6.21094 16.875 10C16.875 13.7891 13.791 16.875 10 16.875Z" fill="#666666"/>
</svg>
